<svg width="154" height="23" viewBox="0 0 154 23" fill="none" xmlns="http://www.w3.org/2000/svg">
<path fill-rule="evenodd" clip-rule="evenodd" d="M152.931 9.42717C152.829 9.51077 152.704 9.55971 152.554 9.57399L153.131 10.4508H152.796L152.248 9.59642H151.917V10.4508H151.605V8.46467H152.384C152.623 8.46467 152.8 8.51157 152.915 8.60537C153.029 8.69918 153.088 8.84192 153.088 9.03156C153.088 9.21101 153.038 9.34152 152.936 9.42513L152.931 9.42717ZM152.242 9.34764C152.313 9.34764 152.38 9.3456 152.442 9.34152C152.504 9.33744 152.561 9.32521 152.611 9.30277C152.661 9.28034 152.698 9.24976 152.727 9.20489C152.757 9.16207 152.771 9.09886 152.771 9.02137C152.771 8.95407 152.759 8.90105 152.732 8.86231C152.707 8.82357 152.671 8.79298 152.632 8.77259C152.59 8.75016 152.542 8.73588 152.488 8.72976C152.434 8.72161 152.382 8.71753 152.33 8.71753H151.915V9.34968H152.242V9.34764ZM153.863 8.78482C153.954 8.99078 154 9.21305 154 9.45164C154 9.69022 153.954 9.92269 153.863 10.1307C153.771 10.3387 153.646 10.5181 153.49 10.6711C153.333 10.824 153.15 10.9423 152.942 11.0279C152.734 11.1115 152.511 11.1544 152.273 11.1544C152.036 11.1544 151.813 11.1115 151.603 11.0279C151.392 10.9423 151.209 10.824 151.051 10.6711C150.892 10.5181 150.767 10.3387 150.676 10.1307C150.584 9.92269 150.538 9.69634 150.538 9.45164C150.538 9.20693 150.584 8.99078 150.676 8.78482C150.767 8.57886 150.892 8.39942 151.051 8.24852C151.209 8.09762 151.392 7.97934 151.603 7.89166C151.813 7.80601 152.036 7.76319 152.273 7.76319C152.511 7.76319 152.732 7.80601 152.942 7.89166C153.15 7.9773 153.333 8.09762 153.49 8.24852C153.646 8.40145 153.771 8.57886 153.863 8.78482ZM153.579 10.0308C153.65 9.85336 153.688 9.66167 153.688 9.45164C153.688 9.2416 153.652 9.06011 153.579 8.88474C153.506 8.70937 153.406 8.55643 153.279 8.42796C153.152 8.29949 153.002 8.19754 152.832 8.12412C152.659 8.04867 152.473 8.01197 152.273 8.01197C152.073 8.01197 151.884 8.04867 151.709 8.12412C151.536 8.19754 151.384 8.29949 151.257 8.42796C151.13 8.55643 151.03 8.70937 150.957 8.88474C150.884 9.06011 150.849 9.24976 150.849 9.45164C150.849 9.65351 150.884 9.85336 150.957 10.0308C151.03 10.2082 151.13 10.3632 151.257 10.4916C151.384 10.6221 151.534 10.7241 151.709 10.7975C151.882 10.8709 152.071 10.9097 152.273 10.9097C152.475 10.9097 152.659 10.8729 152.832 10.7975C153.004 10.7241 153.152 10.6201 153.279 10.4916C153.406 10.3611 153.506 10.2082 153.579 10.0308ZM8.40651 1.85158C10.2353 3.75618 10.4269 4.8186 11.0747 6.6661L12.162 10.1796C12.162 10.1796 11.0893 9.97978 10.2124 9.84928C9.19384 9.69634 8.74186 9.54748 7.4463 9.02748C6.15075 8.50545 4.97809 7.233 3.83042 5.81169C2.68067 4.39241 0 2.1595 0 2.1595C0 2.1595 0.828987 2.21252 1.67047 2.42052C2.35991 2.58977 4.15327 3.16482 6.00287 4.11304C6.4132 4.32308 6.64023 4.4597 7.04431 4.70645C7.65876 5.08166 8.30654 5.64039 8.92723 6.26031C9.65416 6.9883 10.2915 7.57354 10.8372 8.22608C10.2457 7.14939 8.70853 3.27494 5.70502 0.0774891C5.41133 -0.236546 7.77957 1.20108 8.40651 1.85362V1.85158ZM81.1803 7.06782C85.4398 7.06782 89.1203 10.6955 89.1203 14.9167C89.1203 19.462 85.594 23 80.9346 23C76.7042 23 73.0196 20.0595 73.0196 15.3388V1.44375H75.4691V9.37211L75.7607 9.07031C76.8271 8.02624 78.3476 7.06782 81.1824 7.06782H81.1803ZM80.9346 20.7977C84.4088 20.7977 86.6167 18.3588 86.6167 15.141C86.6167 12.1841 84.5317 9.35987 80.9908 9.35987C77.4499 9.35987 75.2545 11.9925 75.2545 15.2001C75.2545 18.4077 77.8581 20.7977 80.9346 20.7977ZM21.4787 7.06782C25.7403 7.06782 29.4186 10.6955 29.4186 14.9167C29.4186 19.462 25.8923 23 21.2329 23C17.0047 23 13.318 20.0595 13.318 15.3388V0H15.7674V9.37211L16.059 9.07031C17.1255 8.02624 18.6439 7.06782 21.4808 7.06782H21.4787ZM21.2329 20.7977C24.7072 20.7977 26.915 18.3588 26.915 15.141C26.915 12.1841 24.83 9.35987 21.2891 9.35987C17.7482 9.35987 15.5529 11.9925 15.5529 15.2001C15.5529 18.4077 18.1565 20.7977 21.2329 20.7977ZM148.834 12.0169C148.834 14.0806 147.281 15.6752 145.429 16.0382L150.065 22.27H147.799L143.361 16.2075H141.396V22.27H139.605V7.76319H143.854C147.518 7.76319 148.834 10.0185 148.834 12.0169ZM141.394 14.5904H144.067C146.01 14.5904 146.981 13.4219 146.981 12.0169C146.981 10.3163 145.945 9.38026 144.046 9.38026H141.394V14.5904ZM135.079 13.9521V7.76319H136.868V22.27H135.079V15.5692H127.256V22.27H125.467V7.76319H127.256V13.9521H135.079ZM115.637 7.22688C120.23 7.22688 123.525 10.5691 123.525 14.9738C123.525 19.3784 120.197 22.7838 115.637 22.7838C111.078 22.7838 107.752 19.3784 107.752 14.9738C107.752 10.5691 111.203 7.22688 115.637 7.22688ZM115.637 20.5978C118.749 20.5978 120.999 18.1671 120.999 14.9758C120.999 11.7845 118.874 9.38434 115.637 9.38434C112.401 9.38434 110.278 11.7539 110.278 14.9758C110.278 18.1977 112.805 20.5978 115.637 20.5978ZM98.3079 7.22688C102.896 7.22688 106.194 10.5691 106.194 14.9738C106.194 19.3784 102.867 22.7838 98.3079 22.7838C93.7485 22.7838 90.42 19.3784 90.42 14.9738C90.42 10.5691 93.8714 7.22688 98.3079 7.22688ZM98.3079 20.5978C101.418 20.5978 103.667 18.1671 103.667 14.9758C103.667 11.7845 101.543 9.38434 98.3079 9.38434C95.0732 9.38434 92.9465 11.7539 92.9465 14.9758C92.9465 18.1977 95.4731 20.5978 98.3079 20.5978ZM65.6504 7.22688C68.9767 7.22688 71.2887 9.50465 71.2887 13.791V22.2679H68.8539V13.6055C68.8539 11.3583 67.8082 9.3823 65.3109 9.3823C63.2467 9.3823 61.3055 10.8403 61.3055 14.1846V22.2679H58.8414V13.6055C58.8414 11.2053 57.5167 9.3823 55.3297 9.3823C52.8636 9.3823 51.2931 11.1442 51.2931 14.1846V22.2679H48.8582V7.71221H51.2931V9.53524H51.3556C52.3408 8.23016 53.8488 7.22688 55.7608 7.22688C58.0708 7.22688 59.9495 8.53196 60.5681 10.2347C61.3076 8.77462 63.0947 7.22688 65.6525 7.22688H65.6504ZM44.2029 9.80849V7.71221H46.6357V22.2679H44.2029V20.3225H44.1404C43.0615 21.5991 41.2452 22.7838 38.7479 22.7838C34.7446 22.7838 31.1703 19.7149 31.1703 14.9738C31.1703 10.2326 34.4967 7.22688 38.9041 7.22688C41.5848 7.22688 43.1532 8.62372 44.1717 9.80849H44.2029ZM39.0874 20.659C41.8618 20.659 44.4175 18.3486 44.4175 15.0676C44.4175 11.603 42.0451 9.32521 39.1478 9.32521C35.4507 9.32521 33.6948 12.1821 33.6948 14.9758C33.6948 17.7695 35.4507 20.659 39.0874 20.659Z" fill="white"/>
</svg>
