<svg width="105" height="22" viewBox="0 0 105 22" fill="none" xmlns="http://www.w3.org/2000/svg">
<g clip-path="url(#clip0_2114_8359)">
<path d="M11.227 15.1206H7.71745C6.61745 15.1206 5.58729 15.4 4.8365 16.2206L0.226975 21.5111C3.59682 21.7206 7.08888 21.7206 9.56825 21.7206C22.1397 21.7206 24.1302 14.1603 24.2 10.3889C23.1 11.7508 19.8175 15.1206 11.227 15.1206ZM22.6286 2.96826C22.5587 3.57937 22.2095 6.26826 14.6667 6.26826C8.55555 6.26826 6.07618 6.26826 0.0349121 6.12858L4.57459 11.3492C5.46507 12.3794 6.70475 12.7286 8.08412 12.7984C9.60317 12.7984 11.6635 12.8683 11.9254 12.8683C20.3762 12.8683 23.9555 8.95715 23.9555 6.12858C24.0079 4.60953 23.519 3.64921 22.6286 2.96826Z" fill="white"/>
<path d="M45.4318 5.98889H49.9016V16.6397C49.9016 17.8095 49.6222 18.8397 49.1508 19.6603C48.6794 20.481 48.0508 21.0397 47.2302 21.4413C46.4095 21.8603 45.5191 21.9825 44.4889 21.9825C43.4587 21.9825 42.5683 21.773 41.7476 21.4413C40.927 21.0222 40.2984 20.481 39.827 19.6603C39.7572 19.5905 39.7571 19.4508 39.6873 19.381C39.6175 19.4508 39.6175 19.5905 39.5476 19.6603C39.0587 20.481 38.4476 21.0397 37.627 21.4413C36.8064 21.8429 35.9159 21.9825 34.8857 21.9825C33.8556 21.9825 32.9651 21.773 32.2143 21.4413C31.3937 21.0222 30.7651 20.481 30.2937 19.6603C29.8222 18.8397 29.6127 17.8794 29.6127 16.6397L29.473 5.98889H33.9429V15.819C33.9429 16.5 34.0825 16.9889 34.4318 17.2683C34.781 17.5476 35.1825 17.6873 35.6714 17.6873C36.1603 17.6873 36.6318 17.5476 36.981 17.2683C37.3302 16.9889 37.5222 16.5175 37.5222 15.819V5.98889H39.1635H40.3333H41.9746V15.819C41.9746 16.5 42.1841 16.9889 42.5159 17.2683C42.8476 17.5476 43.3365 17.6873 43.8254 17.6873C44.3143 17.6873 44.7159 17.5476 45.0651 17.2683C45.3445 16.9889 45.4841 16.5175 45.4841 15.819V5.98889H45.4318ZM56.3619 0.279366C56.0127 0.0698423 55.6111 0 55.1222 0C54.6333 0 54.2318 0.0698423 53.8825 0.279366C53.5333 0.48889 53.2016 0.768252 52.9921 1.1C52.7825 1.4492 52.6429 1.85079 52.6429 2.26984C52.6429 2.95079 52.8524 3.50952 53.3238 3.91111C53.7952 4.3127 54.4238 4.52222 55.1048 4.52222C55.5937 4.52222 55.9952 4.45238 56.3445 4.24286C56.7635 4.03333 57.0254 3.75397 57.2349 3.42222C57.4444 3.07302 57.5841 2.67143 57.5841 2.18254C57.5841 1.69365 57.4444 1.3619 57.2349 1.0127C57.0429 0.768252 56.7635 0.48889 56.3619 0.279366ZM52.8524 21.6508H57.3222V6.19841H52.8524V21.6508ZM67.6937 14.4397C67.4841 14.0905 67.1524 13.7587 66.873 13.4095C66.5937 13.1302 66.2619 12.8683 65.9127 12.519C65.6333 12.2397 65.4238 12.0302 65.2318 11.8381C65.0921 11.6286 65.0222 11.419 65.0222 11.1571C65.0222 10.7381 65.2318 10.4762 65.7032 10.2667C66.1746 10.0571 66.7333 9.9873 67.4143 9.9873H68.0952L67.6762 5.86667C67.2572 5.79683 66.8556 5.79683 66.4365 5.79683C65.3365 5.79683 64.3064 5.93651 63.2762 6.21587C62.3159 6.49524 61.4952 6.96667 60.8667 7.66508C60.2381 8.36349 59.9064 9.23651 59.9064 10.4064C59.9064 11.227 60.046 11.9254 60.3952 12.5365C60.7444 13.1476 61.146 13.7064 61.6349 14.2476C61.9143 14.527 62.1762 14.7889 62.4556 15.0683C62.7349 15.3476 62.9968 15.6095 63.1365 15.819C63.2762 16.0286 63.346 16.2381 63.346 16.5C63.346 16.919 63.1365 17.2508 62.6651 17.4603C62.1937 17.6698 61.5651 17.8095 60.6746 17.8095C60.3254 17.8095 60.0635 17.8095 59.9238 17.7397L60.4651 21.8603C60.8841 22 61.2159 22 61.7048 22C63.0143 22 64.1143 21.7905 65.1445 21.4587C66.1746 21.1095 66.9952 20.5683 67.6238 19.8175C68.2349 19.0667 68.5143 18.1762 68.5143 17.0063C68.5143 16.5175 68.4445 16.046 68.3048 15.5571C68.1127 15.1206 67.973 14.7714 67.6937 14.4397ZM75.8651 17.2508C75.5159 16.9016 75.3762 16.4302 75.3762 15.8016V10.0921H78.6064V6.18095H75.3762V2.26984L70.9064 3.57937V17.2508C70.9064 18.8222 71.2556 20.0619 71.8667 20.8302C72.5476 21.581 73.5079 22 74.8175 22C75.4984 22 76.127 21.9302 76.7381 21.8603C77.3492 21.7905 77.8381 21.6508 78.3095 21.4413L79.1302 17.6C78.6413 17.7397 78.0302 17.8095 77.3492 17.8095C76.6159 17.7397 76.1445 17.6 75.8651 17.2508ZM81.4349 21.6508H85.9048V6.19841H81.4349V21.6508ZM84.927 0.279366C84.5778 0.0698423 84.1762 0 83.6873 0C83.1984 0 82.7968 0.0698423 82.4476 0.279366C82.0984 0.48889 81.7667 0.768252 81.5571 1.1C81.3476 1.4492 81.2079 1.85079 81.2079 2.26984C81.2079 2.95079 81.4175 3.50952 81.8889 3.91111C82.3603 4.3127 82.9889 4.52222 83.6699 4.52222C84.1587 4.52222 84.5603 4.45238 84.9095 4.24286C85.3286 4.03333 85.5905 3.75397 85.8 3.42222C86.0095 3.07302 86.1492 2.67143 86.1492 2.18254C86.1492 1.69365 86.0095 1.3619 85.8 1.0127C85.6254 0.768252 85.346 0.48889 84.927 0.279366ZM104.797 6.19841V21.6508H100.327V19.1016C99.8381 19.8524 99.2968 20.481 98.6159 20.9524C97.6556 21.6333 96.4857 21.9825 95.1762 21.9825C93.8667 21.9825 92.6968 21.6333 91.7365 20.9524C90.7762 20.2714 90.0254 19.3111 89.4667 18.0714C88.9254 16.8317 88.646 15.4524 88.646 13.881C88.646 12.3095 88.9254 10.9302 89.4667 9.76032C90.0079 8.52063 90.7762 7.56032 91.7365 6.87936C92.6968 6.19841 93.8667 5.84921 95.1762 5.84921C96.4857 5.84921 97.6556 6.19841 98.6159 6.87936C99.2968 7.36825 99.8556 7.97937 100.327 8.73016V6.18095H104.797V6.19841ZM99.9778 15.8016C100.327 15.2603 100.467 14.5619 100.467 13.881C100.467 13.2 100.327 12.5016 99.9778 11.9603C99.6984 11.419 99.2968 10.9302 98.7381 10.6508C98.1968 10.3016 97.6381 10.1619 96.9572 10.1619C96.346 10.1619 95.7175 10.3016 95.1762 10.6508C94.6349 11 94.2159 11.4016 93.9365 11.9603C93.5873 12.5016 93.4476 13.1302 93.4476 13.881C93.4476 14.5619 93.5873 15.2603 93.9365 15.8016C94.2857 16.3429 94.6873 16.8317 95.1762 17.1111C95.7175 17.4603 96.2762 17.6 96.9572 17.6C97.5683 17.6 98.1968 17.4603 98.7381 17.1111C99.2968 16.8317 99.6984 16.3603 99.9778 15.8016Z" fill="white"/>
</g>
<defs>
<clipPath id="clip0_2114_8359">
<rect width="104.937" height="22" fill="white"/>
</clipPath>
</defs>
</svg>
