<svg viewBox="0 0 154 34" xmlns="http://www.w3.org/2000/svg"><path d="m30.71 23.25v-12.49c0-1.61-.86-3.1-2.26-3.9l-10.84-6.26c-1.4-.81-3.12-.81-4.52 0l-10.83 6.25c-1.4.81-2.26 2.29-2.26 3.9v12.49c0 1.61.86 3.1 2.26 3.9l10.84 6.25c1.4.81 3.12.81 4.52 0l10.84-6.25c1.4-.81 2.26-2.29 2.26-3.9z" fill="#4d71f1"/><g fill="#fff"><path d="m15.3 7.22h1.25c.25 0 .45.2.45.45v15.36c0 .92-.75 1.67-1.67 1.67s-1.67-.75-1.67-1.67v-14.17c0-.9.73-1.64 1.64-1.64z"/><path d="m21.13 11.98h1.26c.25 0 .45.2.45.45v10.59c0 .92-.75 1.67-1.67 1.67s-1.67-.75-1.67-1.67v-9.4c0-.9.73-1.64 1.64-1.64z"/><path d="m9.5 18.02h1.25c.25 0 .45.2.45.45v4.6c0 .92-.75 1.67-1.67 1.67s-1.67-.75-1.67-1.67v-3.41c0-.9.73-1.64 1.64-1.64z"/></g><g fill="#311b48"><path d="m55.82 21.47c0 2.3-.43 3.52-1.5 4.44-1.1.93-2.9 1.5-5.5 1.5s-4.1-.45-5.17-1.34c-1.37-1.15-1.97-3.1-1.97-6.08v-1.31c0-2.94.6-4.64 1.9-5.88 1.16-1.12 2.77-1.63 5.03-1.63 1.27 0 2.4.32 3.17.8h.07v-5.69c0-.64.2-.8.93-.8h2.1c.73 0 .93.16.93.8v15.19zm-3.97-4.38c0-1.28-.27-1.82-.66-2.17-.47-.42-1.13-.67-2.23-.67-1.17 0-1.9.35-2.4.93-.7.8-.83 1.82-.83 3.61v.99c0 2.05.2 3.04.8 3.74.5.58 1.17.83 2.3.83 1.3 0 1.93-.22 2.4-.7s.63-1.28.63-2.37v-4.19z" fill-rule="evenodd"/><path d="m69.35 25.79c-.63 1.06-1.67 1.63-3.67 1.63h-1.23c-1.73 0-2.77-.29-3.67-1.02-.97-.8-1.43-2.05-1.43-3.58v-.73c0-1.73.43-2.94 1.4-3.71 1.03-.83 2.6-1.18 4.87-1.18h1.2c.6 0 1.3.03 1.87.06v-.86c0-.83-.17-1.31-.57-1.63-.47-.35-1.1-.45-2.3-.45s-2.77.22-4.1.61c-.53.16-.73-.06-.83-.51l-.3-1.5c-.13-.54-.07-.8.5-.96 1.23-.38 3.27-.77 5.03-.77 2.37 0 3.67.29 4.8 1.02 1.2.8 1.73 1.95 1.73 4.22v10.1c0 .42-.23.61-.7.61h-1.53c-.5 0-.7-.16-.8-.58l-.2-.77zm-.67-5.5c-.57-.03-1.27-.06-1.93-.06h-1.17c-.77 0-1.4.1-1.73.38-.37.29-.5.83-.5 1.57v.38c0 .7.17 1.15.5 1.44.27.22.73.38 1.47.38h1.2c1.53 0 2.17-.67 2.17-2.14v-1.95z" fill-rule="evenodd"/><path d="m81.75 11.47h3.3c.57 0 .7.19.7.83v1.57c0 .54-.13.8-.7.8h-3.3v6.97c0 1.15.07 1.53.4 1.89.3.32.67.41 1.57.41h1.63c.7 0 .8.19.8.83v1.57c0 .61-.07.8-.8.8h-2.4c-1.93 0-3.06-.29-3.9-1.02-.87-.77-1.27-2.01-1.27-3.84v-7.61h-2c-.5 0-.67-.13-.67-.61v-1.41c0-.51.13-.61.53-.67l2.13-.35v-3.62c0-.64.2-.8.93-.8h2.1c.73 0 .93.16.93.8v3.46z"/><g fill-rule="evenodd"><path d="m98.42 25.79c-.63 1.06-1.67 1.63-3.67 1.63h-1.23c-1.73 0-2.77-.29-3.67-1.02-.97-.8-1.43-2.05-1.43-3.58v-.73c0-1.73.43-2.94 1.4-3.71 1.03-.83 2.6-1.18 4.87-1.18h1.2c.6 0 1.3.03 1.87.06v-.86c0-.83-.17-1.31-.57-1.63-.47-.35-1.1-.45-2.3-.45s-2.77.22-4.1.61c-.53.16-.73-.06-.83-.51l-.3-1.5c-.13-.54-.07-.8.5-.96 1.23-.38 3.27-.77 5.03-.77 2.37 0 3.67.29 4.8 1.02 1.2.8 1.73 1.95 1.73 4.22v10.1c0 .42-.23.61-.7.61h-1.53c-.5 0-.7-.16-.8-.58l-.2-.77zm-.67-5.5c-.57-.03-1.27-.06-1.93-.06h-1.17c-.77 0-1.4.1-1.73.38-.37.29-.5.83-.5 1.57v.38c0 .7.17 1.15.5 1.44.27.22.73.38 1.47.38h1.2c1.53 0 2.17-.67 2.17-2.14v-1.95z"/><path d="m109.85 12.36h.07c.93-.77 2.2-1.18 4-1.18 2.07 0 3.57.48 4.6 1.63 1.1 1.18 1.53 3.16 1.53 5.88v1.34c0 2.78-.57 4.64-1.77 5.79-1.23 1.18-2.93 1.6-5.5 1.6-2.13 0-3.63-.19-4.83-.93-1.3-.83-2.07-1.98-2.07-4.64v-15.57c0-.64.2-.8.93-.8h2.1c.73 0 .93.16.93.8v6.08zm6.16 6.45c0-1.85-.07-2.91-.63-3.68-.47-.64-1.3-.86-2.47-.86-1.1 0-1.87.19-2.33.58-.43.35-.73.86-.73 2.14v4.32c0 1.28.13 1.79.46 2.24.47.54 1.17.8 2.5.8 1.23 0 2.04-.29 2.5-.86.5-.61.7-1.44.7-3.68v-.99z"/><path d="m135.35 13.07c1.23 1.34 1.7 3.36 1.7 5.76v.96c0 2.46-.46 4.41-1.7 5.76-1.1 1.18-2.83 1.89-5.3 1.89s-4.2-.7-5.3-1.89c-1.23-1.34-1.7-3.29-1.7-5.76v-.96c0-2.4.46-4.41 1.7-5.76 1.1-1.21 2.8-1.89 5.3-1.89s4.2.67 5.3 1.89zm-3.07 10.45c.57-.7.73-1.95.73-3.9v-.67c0-1.95-.17-3.17-.73-3.87-.47-.58-1.03-.86-2.23-.86s-1.77.29-2.23.86c-.57.7-.73 1.92-.73 3.87v.67c0 1.95.17 3.2.73 3.9.47.54 1.03.86 2.23.86s1.77-.32 2.23-.86z"/></g><path d="m153.45 26.43c.2.35.16.7-.57.7h-2.66c-.7 0-.8-.1-1.07-.61l-2.4-5.15c-.23-.48-.33-.67-.5-.67h-.4c-.17 0-.3.26-.5.67l-2.46 5.15c-.24.51-.37.61-1.07.61h-2.66c-.73 0-.77-.35-.57-.7l3.9-7.04c.14-.22.14-.38 0-.61l-3.67-6.62c-.2-.35-.17-.7.57-.7h2.6c.7 0 .8.1 1.07.61l2.3 4.76c.2.38.3.61.5.61h.4c.2 0 .33-.22.54-.61l2.33-4.76c.27-.51.37-.61 1.06-.61h2.6c.73 0 .77.35.57.7l-3.8 6.62c-.13.22-.13.38 0 .61l3.9 7.04z"/></g></svg>